<svg width="512" height="512" viewBox="0 0 512 512" fill="none" xmlns="http://www.w3.org/2000/svg">
  <rect width="512" height="512" rx="120" fill="#126348"/>
  <path d="M177 137C177 123.745 187.745 113 201 113H311C324.255 113 335 123.745 335 137V160H358C371.255 160 382 170.745 382 184V366C382 384.778 366.778 400 348 400H164C145.222 400 130 384.778 130 366V184C130 170.745 140.745 160 154 160H177V137Z" fill="#F6F7F3"/>
  <path d="M204 160V144H308V160H204Z" fill="#126348"/>
  <rect x="183" y="224" width="146" height="17" rx="8.5" fill="#126348"/>
  <rect x="183" y="264" width="114" height="17" rx="8.5" fill="#126348" fill-opacity="0.7"/>
  <rect x="183" y="304" width="134" height="17" rx="8.5" fill="#126348" fill-opacity="0.42"/>
</svg>
